<svg width="327" height="47" viewBox="0 0 327 47" xmlns="http://www.w3.org/2000/svg" xmlns:xlink="http://www.w3.org/1999/xlink">
    <defs>
        <path id="ju8t72p7ia" d="M18.846.147H.62v30.702h18.225z"/>
        <path id="wdmfqn7xhc" d="M18.345 31V.147H.119v30.851h18.226z"/>
    </defs>
    <g fill="none" fill-rule="evenodd">
        <path d="M2 8.742v28.736h3.779V8L2 8.742zm5.137 18.25L17.082 38 20 35.954l-8.425-9.145 7.274-8.253-2.96-1.933-8.752 10.37zM29.005 35.824c.474 0 .967-.063 1.478-.189.512-.126 1.022-.29 1.536-.491a8.45 8.45 0 0 0 2.638-1.664v-4.84h-3.594c-1.822 0-3.15.317-3.985.946-.836.63-1.253 1.624-1.253 2.987 0 2.168 1.06 3.251 3.18 3.251m-6.487-3.1c0-2.092.695-3.687 2.085-4.784 1.39-1.095 3.414-1.644 6.07-1.644h3.984v-1.323c0-3.201-1.403-4.802-4.21-4.802-.901 0-1.848.126-2.838.378s-1.896.567-2.723.945l-1.015-2.457a13.966 13.966 0 0 1 3.325-1.342c1.19-.315 2.35-.473 3.477-.473 4.859 0 7.29 2.609 7.29 7.826v13.234h-2.555l-.413-2.27a12.347 12.347 0 0 1-3.29 1.93c-1.164.454-2.272.68-3.324.68-1.831 0-3.264-.524-4.304-1.568-1.04-1.046-1.559-2.49-1.559-4.33M57.507 17.07l2.706 1.967-6.652 8.393 7.704 9.302-2.668 2.08-9.094-11.194 8.004-10.548zm-9.244 21.212h-3.458V9.055l3.458-.757v29.984zM71.496 35.824c.474 0 .966-.063 1.478-.189s1.022-.29 1.535-.491a8.45 8.45 0 0 0 2.638-1.664v-4.84h-3.593c-1.822 0-3.15.317-3.986.946-.835.63-1.252 1.624-1.252 2.987 0 2.168 1.06 3.251 3.18 3.251m-6.487-3.1c0-2.092.694-3.687 2.084-4.784 1.39-1.095 3.415-1.644 6.07-1.644h3.984v-1.323c0-3.201-1.403-4.802-4.209-4.802-.902 0-1.849.126-2.838.378-.99.252-1.897.567-2.724.945l-1.014-2.457a13.966 13.966 0 0 1 3.324-1.342c1.19-.315 2.35-.473 3.477-.473 4.859 0 7.291 2.609 7.291 7.826v13.234h-2.555l-.414-2.27a12.347 12.347 0 0 1-3.289 1.93c-1.165.454-2.273.68-3.325.68-1.83 0-3.264-.524-4.304-1.568-1.04-1.046-1.558-2.49-1.558-4.33M95.432 20.058c-1.804 0-3.189.68-4.151 2.042-.965 1.36-1.448 3.352-1.448 5.974 0 2.596.483 4.555 1.448 5.878.962 1.324 2.347 1.984 4.151 1.984 1.83 0 3.227-.66 4.191-1.984.963-1.323 1.446-3.282 1.446-5.878 0-2.622-.483-4.613-1.446-5.974-.964-1.362-2.362-2.042-4.19-2.042m0-2.8c2.855 0 5.098.934 6.728 2.8 1.626 1.865 2.44 4.537 2.44 8.016 0 3.426-.806 6.062-2.422 7.902-1.616 1.838-3.866 2.76-6.747 2.76-2.856 0-5.098-.922-6.727-2.76-1.628-1.84-2.442-4.476-2.442-7.902 0-3.479.82-6.15 2.46-8.016 1.641-1.866 3.878-2.8 6.71-2.8" fill="#FFF"/>
        <g transform="translate(109.686 8)">
            <mask id="yzihikz92b" fill="#fff">
                <use xlink:href="#ju8t72p7ia"/>
            </mask>
            <path d="M8.812 13.456c-.601 0-1.133.05-1.596.15-.464.104-.832.19-1.11.266v12.78c.301.05.627.075.977.075h.752c.752 0 1.46-.124 2.124-.378a4.452 4.452 0 0 0 1.747-1.21c.5-.553.89-1.29 1.167-2.21.273-.92.411-2.048.411-3.386 0-1.991-.306-3.502-.92-4.537-.614-1.034-1.798-1.55-3.552-1.55m-.411 17.393c-.779 0-1.543-.031-2.295-.096a27.793 27.793 0 0 1-4.096-.641c-.576-.138-1.04-.283-1.389-.434V1.13L6.106.146v10.21a7.949 7.949 0 0 1 2.05-.964 8.194 8.194 0 0 1 2.462-.36c2.88 0 4.971.907 6.276 2.724 1.3 1.813 1.952 4.372 1.952 7.674 0 3.63-.92 6.442-2.763 8.432-1.84 1.99-4.4 2.987-7.682 2.987" fill="#FFF" mask="url(#yzihikz92b)"/>
        </g>
        <path d="M139.536 34.576c.35 0 .739-.038 1.165-.111.426-.076.839-.191 1.24-.343.4-.15.77-.327 1.11-.529.336-.2.62-.403.846-.605v-3.78h-2.52c-2.83 0-4.246 1.02-4.246 3.062 0 1.537.801 2.306 2.405 2.306m-7.328-2.23c0-2.167.732-3.818 2.199-4.954 1.466-1.134 3.59-1.701 6.369-1.701h3.12v-.68c0-1.133-.307-1.972-.92-2.514-.616-.542-1.474-.814-2.576-.814-.852 0-1.786.12-2.799.36a13.51 13.51 0 0 0-2.838 1l-1.503-3.705c.977-.68 2.162-1.233 3.552-1.663 1.39-.429 2.749-.643 4.077-.643 2.632 0 4.642.688 6.032 2.06 1.389 1.375 2.085 3.397 2.085 6.07v13.121h-3.87l-.565-1.74c-1.102.806-2.161 1.391-3.174 1.757-1.015.365-1.987.549-2.914.549-2.004 0-3.55-.573-4.642-1.72-1.088-1.147-1.633-2.74-1.633-4.784M154.781 17.637h3.871l.79 2.119a10.578 10.578 0 0 1 3.118-1.948c1.153-.467 2.268-.7 3.345-.7 2.28 0 4.034.687 5.261 2.06 1.228 1.375 1.842 3.36 1.842 5.955v13.16h-5.6v-13.16c0-1.158-.27-1.997-.809-2.513-.536-.515-1.42-.776-2.648-.776-.501 0-1.083.05-1.748.15-.664.103-1.271.242-1.822.417v15.882h-5.6V17.637z" fill="#FFF"/>
        <g transform="translate(178.688 8)">
            <mask id="ocr9bkix4d" fill="#fff">
                <use xlink:href="#wdmfqn7xhc"/>
            </mask>
            <path fill="#FFF" mask="url(#ocr9bkix4d)" d="m11.318 19.316 7.027 8.394L14.136 31l-8.53-10.588v9.87H.119V1.13L5.606.148v18.941l7.816-10.662 4.172 2.875z"/>
        </g>
        <g fill="#FFF" fill-rule="nonzero">
            <path d="M235.512 31.188V10.516H231.8v20.672h3.712zm.64 7.072v-2.944h-16V29.14h-3.776v9.12h19.776zm-23.296-18.592c0 4.096 3.04 7.008 7.712 7.008 4.704 0 7.712-2.912 7.712-7.008 0-4.032-3.008-7.04-7.712-7.04-4.672 0-7.712 3.008-7.712 7.04zm3.84 0c0-2.176 1.472-3.84 3.872-3.84 2.464 0 3.904 1.664 3.904 3.84 0 2.272-1.44 3.936-3.904 3.936-2.4 0-3.872-1.664-3.872-3.936zM263.896 39.028V10.516h-3.552v11.2h-2.304V11.028h-3.488v26.688h3.488V24.724h2.304v14.304h3.552zm-10.24-9.312c-3.392-1.984-5.216-6.048-5.216-11.616v-1.184h4.448V13.94h-12.864v2.976h4.8v1.248c0 5.632-1.856 9.728-5.888 12.416l2.272 2.496c2.272-1.312 4.736-4.64 5.376-7.264.736 2.528 3.136 5.472 4.992 6.624l2.08-2.72zM290.936 33.3c0-3.552-3.616-5.76-9.792-5.76s-9.76 2.208-9.76 5.76c0 3.456 3.584 5.696 9.76 5.696s9.792-2.24 9.792-5.696zm-8.768-14.336c0-3.968-3.232-6.816-7.36-6.816-4.16 0-7.392 2.88-7.392 6.816 0 4.032 3.296 6.56 7.392 6.56 4.16 0 7.36-2.528 7.36-6.56zm.896 4.768h4.096v3.872h3.744V10.516h-3.744v3.328h-4.096c.032 1.056.096 2.112.096 3.168h4v3.584h-4c0 1.024-.064 2.08-.096 3.136zm4.032 9.568c0 1.696-2.176 2.688-5.952 2.688-3.712 0-5.952-.992-5.952-2.688 0-1.728 2.24-2.752 5.952-2.752 3.776 0 5.952 1.024 5.952 2.752zm-8.512-14.368c0 2.144-1.568 3.744-3.776 3.744-2.24 0-3.744-1.536-3.744-3.744 0-2.016 1.472-3.712 3.744-3.712 2.336 0 3.776 1.632 3.776 3.712zM318.584 38.676V27.188h-3.744v2.88h-11.36V27.22h-3.744v11.456h18.848zM314.84 35.7h-11.36v-2.752h11.36V35.7zm3.712-9.984v-15.2h-3.712v15.2h3.712zm-22.624-7.168c0 4.032 3.232 6.528 7.552 6.528 4.352 0 7.552-2.496 7.552-6.528 0-3.968-3.2-6.816-7.552-6.816-4.32 0-7.552 2.912-7.552 6.816zm3.776-.032c0-2.272 1.632-3.68 3.776-3.68s3.808 1.312 3.808 3.68c0 2.208-1.728 3.488-3.808 3.488-2.112 0-3.776-1.28-3.776-3.488z"/>
        </g>
    </g>
</svg>
